<?xml version="1.0" standalone="no"?>
<!DOCTYPE svg PUBLIC "-//W3C//DTD SVG 20010904//EN"
 "http://www.w3.org/TR/2001/REC-SVG-20010904/DTD/svg10.dtd">
<svg version="1.0" xmlns="http://www.w3.org/2000/svg"
 width="386.000000pt" height="130.000000pt" viewBox="0 0 386.000000 130.000000"
 preserveAspectRatio="xMidYMid meet">

<g transform="translate(0.000000,130.000000) scale(0.100000,-0.100000)"
fill="#000000" stroke="none">
<path d="M80 873 l0 -373 70 0 69 0 3 148 3 147 133 3 133 3 -3 72 -3 72 -127
3 -126 3 -7 64 c-4 35 -4 68 0 74 4 7 61 11 161 11 l154 0 0 70 0 69 -230 3
-230 3 0 -372z"/>
<path d="M913 1243 l-53 -4 0 -258 c0 -294 7 -335 67 -402 56 -62 105 -83 188
-83 80 0 129 20 181 76 66 69 67 75 72 384 l4 281 -23 6 c-30 8 -77 9 -106 1
-22 -6 -22 -7 -25 -276 l-3 -270 -33 -29 c-46 -42 -93 -40 -138 5 l-34 34 0
271 0 271 -22 -2 c-13 -1 -47 -3 -75 -5z"/>
<path d="M1693 1244 c-10 -4 -13 -89 -13 -375 l0 -369 75 0 74 0 3 148 3 147
39 0 38 0 52 -147 51 -148 78 0 c71 0 78 2 72 18 -4 9 -29 82 -56 161 l-49
144 44 47 c84 90 88 208 10 299 -50 58 -92 70 -262 76 -81 2 -153 2 -159 -1z
m302 -169 c31 -30 32 -71 3 -102 -19 -20 -31 -23 -95 -23 l-73 0 0 68 c0 38 3
72 7 75 3 4 35 7 70 7 55 0 68 -4 88 -25z"/>
<path d="M2490 873 l0 -373 235 0 235 0 0 75 0 75 -160 0 -160 0 -2 298 -3
297 -72 0 -73 0 0 -372z"/>
<path d="M3414 1213 c-9 -21 -72 -182 -139 -358 -68 -176 -126 -328 -130 -338
-6 -15 1 -17 73 -17 l79 0 19 53 19 52 124 0 124 0 20 -52 20 -53 78 0 c44 0
79 1 79 3 0 1 -65 169 -143 372 l-142 370 -33 3 c-29 3 -34 0 -48 -35z m84
-366 c17 -52 32 -97 32 -100 0 -4 -31 -7 -70 -7 -38 0 -70 3 -70 8 0 13 65
192 70 192 3 0 20 -42 38 -93z"/>
<path d="M102 264 c-14 -9 -22 -26 -22 -43 0 -27 26 -61 47 -61 6 0 16 -7 23
-15 18 -21 -3 -46 -22 -27 -17 17 -48 15 -48 -3 0 -23 46 -48 75 -41 57 14 57
86 0 113 -35 17 -45 36 -24 49 6 3 16 1 22 -5 14 -14 47 -15 47 -1 0 16 -39
50 -58 50 -10 0 -28 -7 -40 -16z"/>
<path d="M340 180 c0 -93 1 -100 20 -100 19 0 20 7 20 100 0 93 -1 100 -20
100 -19 0 -20 -7 -20 -100z"/>
<path d="M520 174 c0 -94 2 -105 17 -102 13 2 18 15 21 48 5 67 5 67 42 9 19
-30 43 -55 53 -57 15 -3 17 7 17 103 0 96 -2 106 -17 103 -14 -3 -19 -15 -21
-63 l-3 -59 -26 45 c-67 114 -83 109 -83 -27z"/>
<path d="M845 271 c-33 -14 -56 -47 -62 -89 -4 -33 -1 -44 23 -71 42 -47 136
-54 119 -9 -4 9 -15 13 -34 10 -36 -5 -71 27 -71 63 0 36 35 68 71 63 19 -3
30 1 34 10 10 28 -36 41 -80 23z"/>
<path d="M1050 175 l0 -105 60 0 c53 0 60 2 60 20 0 17 -7 20 -41 20 -36 0
-40 2 -37 23 2 17 11 23 36 25 19 2 32 9 32 17 0 8 -13 15 -32 17 -25 2 -34 8
-36 26 -3 20 1 22 37 22 32 0 41 4 41 18 0 14 -11 17 -60 20 l-60 2 0 -105z"/>
<path d="M1722 264 c-36 -25 -22 -104 20 -104 10 0 9 -7 -8 -67 -5 -17 -2 -23
10 -23 11 0 26 20 42 57 37 83 40 107 15 132 -25 25 -49 27 -79 5z m53 -45 c0
-7 -8 -15 -17 -17 -18 -3 -25 18 -11 32 10 10 28 1 28 -15z"/>
<path d="M1972 264 c-12 -8 -22 -22 -22 -30 0 -17 31 -19 47 -3 11 11 33 5 33
-11 0 -4 -18 -30 -40 -56 -22 -27 -40 -59 -40 -72 0 -22 3 -23 57 -20 46 2 59
7 61 20 3 14 -3 18 -27 18 -17 0 -31 2 -31 5 0 3 14 24 30 47 35 48 37 71 10
98 -24 24 -48 25 -78 4z"/>
<path d="M2210 258 c0 -14 8 -18 35 -18 43 0 43 -5 5 -95 -17 -38 -30 -71 -30
-73 0 -2 9 -2 21 0 16 2 30 25 60 97 21 51 39 96 39 100 0 3 -29 6 -65 6 -55
0 -65 -3 -65 -17z"/>
<path d="M2680 180 c0 -93 1 -100 20 -100 19 0 20 7 20 100 0 93 -1 100 -20
100 -19 0 -20 -7 -20 -100z"/>
<path d="M2880 260 c0 -13 7 -20 20 -20 17 0 19 -8 22 -82 2 -66 6 -83 18 -83
12 0 16 18 20 80 5 74 7 80 28 83 15 2 22 9 20 20 -3 13 -17 18 -66 20 -57 3
-62 1 -62 -18z"/>
<path d="M3151 199 c-44 -114 -47 -129 -27 -129 9 0 19 7 22 15 8 20 80 20 88
0 6 -16 36 -21 36 -6 0 18 -73 201 -80 201 -5 0 -22 -36 -39 -81z m53 -35 c9
-23 8 -24 -14 -24 -11 0 -20 2 -20 4 0 12 13 36 20 36 4 0 11 -7 14 -16z"/>
<path d="M3400 176 l0 -104 60 1 c49 2 60 5 60 19 0 13 -10 18 -42 20 l-43 3
-1 80 c-1 65 -5 81 -18 83 -14 3 -16 -10 -16 -102z"/>
<path d="M3620 275 c0 -2 14 -26 30 -52 24 -37 30 -58 30 -101 0 -46 3 -53 18
-50 13 2 18 16 22 58 4 35 16 72 34 103 26 44 27 47 8 47 -11 0 -30 -12 -41
-27 l-21 -28 -21 28 c-17 22 -59 39 -59 22z"/>
<path d="M1522 258 c-8 -8 -12 -45 -12 -101 0 -76 2 -88 16 -85 13 2 17 22 21
101 5 94 0 110 -25 85z"/>
</g>
</svg>
